<svg viewBox="0 0 24 16" xmlns="http://www.w3.org/2000/svg">
<path d="M23.9973 16.0009H8.00311L8.00044 15.1702C8.00044 13.4914 8.13378 12.522 10.1179 12.0633C12.3634 11.5446 14.5768 11.0819 13.5114 9.11784C10.3566 3.30018 12.6127 0 15.9996 0C19.3211 0 21.6345 3.17751 18.4877 9.11917C17.4543 11.0713 19.5891 11.5353 21.8812 12.0647C23.868 12.5234 24 13.4941 24 15.1755L23.9973 16.0009ZM0.00266681 16.0009H6.00433C5.97633 9.45919 8.99917 12.3047 8.99917 7.09906C8.99917 5.08962 7.68843 4.00022 6.00167 4.00022C3.50953 4.00022 1.7761 6.38302 4.13623 10.8393C4.91094 12.3047 3.31085 12.6514 1.59075 13.0487C0.0986722 13.3927 0 14.1221 0 15.3835L0.00266681 16.0009Z"/>
</svg>
