<svg width="102" height="68" viewBox="0 0 102 68" fill="none" xmlns="http://www.w3.org/2000/svg">
<path d="M101.983 68H34.0113L34 64.4697C34 57.3353 34.5667 53.2157 42.9987 51.2663C52.5413 49.062 61.948 47.0957 57.4203 38.7487C44.013 14.025 53.601 0 67.9943 0C82.11 0 91.9417 13.5037 78.5683 38.7543C74.1767 47.0503 83.249 49.0223 92.99 51.272C101.433 53.2213 101.994 57.3467 101.994 64.4923L101.983 68ZM0.0113333 68H25.517C25.398 40.1993 38.2443 52.292 38.2443 30.1693C38.2443 21.6297 32.674 17 25.5057 17C14.9147 17 7.548 27.1263 17.578 46.0643C20.8703 52.292 14.0703 53.7653 6.76033 55.454C0.419333 56.916 0 60.0157 0 65.3763L0.0113333 68Z" fill="#446DF6"/>
</svg>
