<svg  viewBox="0 0 513 513" fill="none" xmlns="http://www.w3.org/2000/svg">
<path fill-rule="evenodd" clip-rule="evenodd" d="M133.138 1L265.276 133.228L133.138 265.455L1 133.228V1H133.138Z" fill="#F25C54"/>
<path fill-rule="evenodd" clip-rule="evenodd" d="M512.647 380.678V512.997H380.6L248.829 381.227L381.012 249.044L512.647 380.678Z" fill="#446DF6"/>
<path fill-rule="evenodd" clip-rule="evenodd" d="M381.058 1L248.829 133.228L381.012 265.411L512.647 133.777V1H381.058Z" fill="#446DF6"/>
<path fill-rule="evenodd" clip-rule="evenodd" d="M133.595 512.997H1V381.226L133.138 249L265.276 381.227L133.595 512.997Z" fill="#446DF6"/>
<rect width="362.04" height="362.04" rx="50" transform="matrix(0.707109 -0.707105 0.707109 0.707105 0.820312 256.999)" fill="#F8F8FF"/>
<path d="M146.679 301.499C137.595 301.499 129.387 299.541 122.054 295.624C114.804 291.707 109.095 286.332 104.929 279.499C100.845 272.582 98.8037 264.832 98.8037 256.249C98.8037 247.666 100.845 239.957 104.929 233.124C109.095 226.207 114.804 220.791 122.054 216.874C129.387 212.957 137.595 210.999 146.679 210.999C155.762 210.999 163.929 212.957 171.179 216.874C178.429 220.791 184.137 226.207 188.304 233.124C192.47 239.957 194.554 247.666 194.554 256.249C194.554 264.832 192.47 272.582 188.304 279.499C184.137 286.332 178.429 291.707 171.179 295.624C163.929 299.541 155.762 301.499 146.679 301.499ZM146.679 284.249C151.845 284.249 156.512 283.082 160.679 280.749C164.845 278.332 168.095 274.999 170.429 270.749C172.845 266.499 174.054 261.666 174.054 256.249C174.054 250.832 172.845 245.999 170.429 241.749C168.095 237.499 164.845 234.207 160.679 231.874C156.512 229.457 151.845 228.249 146.679 228.249C141.512 228.249 136.845 229.457 132.679 231.874C128.512 234.207 125.22 237.499 122.804 241.749C120.47 245.999 119.304 250.832 119.304 256.249C119.304 261.666 120.47 266.499 122.804 270.749C125.22 274.999 128.512 278.332 132.679 280.749C136.845 283.082 141.512 284.249 146.679 284.249Z" fill="black"/>
<path d="M293.853 299.999L293.728 247.499L267.978 290.749H258.853L233.228 248.624V299.999H214.228V212.499H230.978L263.728 266.874L295.978 212.499H312.603L312.853 299.999H293.853Z" fill="black"/>
<path d="M374.887 301.499C367.97 301.499 361.262 300.582 354.762 298.749C348.345 296.832 343.178 294.374 339.262 291.374L346.137 276.124C349.887 278.874 354.345 281.082 359.512 282.749C364.678 284.416 369.845 285.249 375.012 285.249C380.762 285.249 385.012 284.416 387.762 282.749C390.512 280.999 391.887 278.707 391.887 275.874C391.887 273.791 391.053 272.082 389.387 270.749C387.803 269.332 385.72 268.207 383.137 267.374C380.637 266.541 377.22 265.624 372.887 264.624C366.22 263.041 360.762 261.457 356.512 259.874C352.262 258.291 348.595 255.749 345.512 252.249C342.512 248.749 341.012 244.082 341.012 238.249C341.012 233.166 342.387 228.582 345.137 224.499C347.887 220.332 352.012 217.041 357.512 214.624C363.095 212.207 369.887 210.999 377.887 210.999C383.47 210.999 388.928 211.666 394.262 212.999C399.595 214.332 404.262 216.249 408.262 218.749L402.012 234.124C393.928 229.541 385.845 227.249 377.762 227.249C372.095 227.249 367.887 228.166 365.137 229.999C362.47 231.832 361.137 234.249 361.137 237.249C361.137 240.249 362.678 242.499 365.762 243.999C368.928 245.416 373.72 246.832 380.137 248.249C386.803 249.832 392.262 251.416 396.512 252.999C400.762 254.582 404.387 257.082 407.387 260.499C410.47 263.916 412.012 268.541 412.012 274.374C412.012 279.374 410.595 283.957 407.762 288.124C405.012 292.207 400.845 295.457 395.262 297.874C389.678 300.291 382.887 301.499 374.887 301.499Z" fill="black"/>
</svg>
